<svg width="69" height="21" viewBox="0 0 69 21" fill="none" xmlns="http://www.w3.org/2000/svg">
<path d="M51.8953 16.4132C51.8953 18.5801 50.1911 20.3367 48.0888 20.3367H45.2974V0.0435942H48.0888C50.1911 0.0435942 51.8953 1.80022 51.8953 3.96707V5.70822C51.9112 5.88304 51.9429 6.20411 51.9799 6.40246C52.0328 6.68582 52.5403 7.42693 53.1853 7.42693C53.3714 7.42693 54.0665 7.42693 54.9612 7.42693L60.5906 0H68.9717L61.2661 10.1585L68.9899 20.3408H60.6088L54.9839 12.9198C54.0781 12.9198 53.3731 12.9198 53.1853 12.9198C52.5403 12.9198 52.0328 13.6609 51.9799 13.9443C51.9429 14.1426 51.9112 14.4637 51.8953 14.6385V16.4132Z" fill="#1D2733"/>
<path d="M37.7478 5.38387H28.4007C26.2985 5.38387 24.5942 3.62746 24.5942 1.46039V0.0435791H44.3458V8.9368C44.3458 11.1036 42.6415 12.8603 40.5393 12.8603H31.1922V13.2341C31.208 13.4089 31.2398 13.7302 31.2768 13.9283C31.3201 14.1607 31.6688 14.7002 32.1483 14.8874H40.5393C42.6415 14.8874 44.3458 16.644 44.3458 18.8109V20.3367H24.5942V11.3781C24.5942 9.21122 26.2985 7.45459 28.4007 7.45459H36.6503C37.2016 7.33013 37.6157 6.70652 37.6632 6.45193C37.7003 6.25379 37.732 5.9325 37.7478 5.75769V5.38387Z" fill="#00A273"/>
<path d="M0 0.0217896H2.77029C4.87254 0.0217896 6.57679 1.77842 6.57679 3.94527V5.7577C6.59265 5.93251 6.62438 6.2538 6.66138 6.45194C6.71425 6.7353 7.22179 7.4764 7.86678 7.4764C10.5343 7.4764 15.3134 7.4764 15.7758 7.4764C16.4208 7.4764 16.9284 6.7353 16.9812 6.45194C17.0182 6.2538 17.05 5.93251 17.0658 5.7577V3.96707C17.0658 1.80022 18.7701 0.0435867 20.8723 0.0435867H23.6638V20.3367H0V18.8109C0 16.644 1.70426 14.8874 3.8065 14.8874H15.8397C16.454 14.8406 16.9301 14.1306 16.9812 13.8536C17.0182 13.6528 17.05 13.328 17.0658 13.1511V12.8603H3.8065C1.70426 12.8603 0 11.1037 0 8.93681V0.0217896Z" fill="#1D2733"/>
</svg>
